<svg width="135" height="55" viewBox="0 0 135 55" fill="none" xmlns="http://www.w3.org/2000/svg">
<g clip-path="url(#clip0_52_3)">
<path d="M37.9314 24.4557C38.3195 22.7898 37.0379 21.2004 35.3103 21.2004H35.3055C34.0214 21.2004 32.9285 22.1014 32.6681 23.3462C32.1555 25.7932 30.9886 28.0026 29.357 29.7885L24.2093 22.0305C26.7327 20.3638 28.3952 17.5215 28.3952 14.2943C28.3952 9.23689 24.2459 5.07086 19.1356 5.0008C13.8862 4.92834 9.60838 9.11692 9.60838 14.2943C9.60838 17.5215 11.2708 20.3638 13.7943 22.0305L8.64654 29.7885C7.01499 28.0026 5.84809 25.7932 5.33543 23.3462C5.07504 22.1022 3.98219 21.2004 2.69811 21.2004H2.69322C0.965655 21.2004 -0.315985 22.7898 0.0721689 24.4557C0.955076 28.2425 2.96908 31.601 5.7423 34.1655L2.75995 38.6592C1.52307 40.5224 2.87387 42.9992 5.12712 42.9992C6.08082 42.9992 6.97105 42.5241 7.49428 41.7351L10.3993 37.3572C12.9927 38.627 15.9132 39.3412 19.0022 39.3412C22.0911 39.3412 25.0117 38.627 27.605 37.3572L30.5101 41.7351C31.0333 42.5241 31.9236 42.9992 32.8773 42.9992C35.1305 42.9992 36.4813 40.5224 35.2444 38.6592L32.2621 34.1655C35.0353 31.601 37.0493 28.2425 37.9322 24.4557H37.9314ZM19.1609 10.4527C21.2034 10.5316 22.8764 12.1565 22.9928 14.1759C23.0749 15.6091 22.3849 16.8878 21.2977 17.6447C20.6476 18.0972 19.8558 18.3637 19.0006 18.3637C18.1453 18.3637 17.3535 18.0972 16.7034 17.6447C15.6748 16.9288 15.0018 15.746 15.0018 14.407C15.0018 12.1694 16.8791 10.365 19.1609 10.4535V10.4527ZM19.0006 34.3394C16.9385 34.3394 14.9823 33.8966 13.2206 33.1026L19.0006 24.3929L24.7805 33.1026C23.0196 33.8966 21.0626 34.3394 19.0006 34.3394Z" fill="#868686"/>
</g>
<path d="M47.228 10.2727H54.483L64.1989 33.9872H64.5824L74.2983 10.2727H81.5533V43H75.8643V20.516H75.5607L66.516 42.9041H62.2653L53.2205 20.468H52.9169V43H47.228V10.2727ZM94.8168 43.4954C93.2614 43.4954 91.8604 43.2184 90.614 42.6644C89.3782 42.0998 88.3981 41.2688 87.6737 40.1715C86.9599 39.0742 86.603 37.7212 86.603 36.1126C86.603 34.7276 86.8587 33.5824 87.37 32.6768C87.8814 31.7713 88.5792 31.0469 89.4634 30.5036C90.3477 29.9602 91.3438 29.5501 92.4517 29.2731C93.5703 28.9854 94.7262 28.7777 95.9194 28.6499C97.3576 28.5007 98.5241 28.3675 99.419 28.2504C100.314 28.1225 100.964 27.9308 101.369 27.6751C101.784 27.4087 101.992 26.9986 101.992 26.4446V26.3487C101.992 25.1449 101.635 24.2127 100.921 23.5522C100.207 22.8917 99.1793 22.5614 97.837 22.5614C96.4201 22.5614 95.2962 22.8704 94.4652 23.4883C93.6449 24.1062 93.0909 24.8359 92.8033 25.6776L87.402 24.9105C87.8281 23.419 88.5313 22.1726 89.5114 21.1712C90.4915 20.1591 91.69 19.4027 93.1069 18.902C94.5238 18.3906 96.0898 18.1349 97.805 18.1349C98.9876 18.1349 100.165 18.2734 101.337 18.5504C102.509 18.8274 103.579 19.2855 104.549 19.9247C105.518 20.5533 106.296 21.4109 106.882 22.4975C107.478 23.5842 107.777 24.9425 107.777 26.5724V43H102.216V39.6282H102.024C101.672 40.31 101.177 40.9492 100.538 41.5458C99.9091 42.1317 99.1154 42.6058 98.1566 42.968C97.2085 43.3196 96.0952 43.4954 94.8168 43.4954ZM96.3189 39.2447C97.4801 39.2447 98.4869 39.0156 99.3391 38.5575C100.191 38.0888 100.847 37.4709 101.305 36.7038C101.773 35.9368 102.008 35.1005 102.008 34.195V31.3026C101.827 31.4517 101.518 31.5902 101.081 31.718C100.655 31.8459 100.175 31.9577 99.6428 32.0536C99.1101 32.1495 98.5827 32.2347 98.0607 32.3093C97.5387 32.3839 97.0859 32.4478 96.7024 32.5011C95.8395 32.6183 95.0671 32.81 94.3853 33.0763C93.7035 33.3427 93.1655 33.7156 92.7713 34.195C92.3771 34.6637 92.18 35.271 92.18 36.0167C92.18 37.082 92.5689 37.8864 93.3466 38.4297C94.1243 38.973 95.1151 39.2447 96.3189 39.2447ZM113.593 43V18.4545H119.378V43H113.593ZM116.502 14.9709C115.586 14.9709 114.797 14.6673 114.137 14.06C113.476 13.4421 113.146 12.7017 113.146 11.8388C113.146 10.9652 113.476 10.2248 114.137 9.61754C114.797 8.99964 115.586 8.6907 116.502 8.6907C117.429 8.6907 118.217 8.99964 118.867 9.61754C119.527 10.2248 119.858 10.9652 119.858 11.8388C119.858 12.7017 119.527 13.4421 118.867 14.06C118.217 14.6673 117.429 14.9709 116.502 14.9709ZM131.112 10.2727V43H125.327V10.2727H131.112Z" fill="#868686"/>
<defs>
<clipPath id="clip0_52_3">
<rect width="38" height="38" fill="white" transform="translate(0 5)"/>
</clipPath>
</defs>
</svg>
