<svg width="30" height="22" viewBox="0 0 30 22" fill="none" xmlns="http://www.w3.org/2000/svg">
<path d="M2 3.71797C2 3.17394 2.21612 2.65218 2.60081 2.26749C2.9855 1.8828 3.50725 1.66669 4.05128 1.66669H26.6154C27.1594 1.66669 27.6812 1.8828 28.0659 2.26749C28.4505 2.65218 28.6667 3.17394 28.6667 3.71797V18.0769C28.6667 18.621 28.4505 19.1427 28.0659 19.5274C27.6812 19.9121 27.1594 20.1282 26.6154 20.1282H4.05128C3.50725 20.1282 2.9855 19.9121 2.60081 19.5274C2.21612 19.1427 2 18.621 2 18.0769V3.71797Z" stroke="#717171" stroke-width="2.5" stroke-linejoin="round"/>
<path d="M2 3.71796L14.1662 12.1405C14.5091 12.3778 14.9163 12.505 15.3333 12.505C15.7504 12.505 16.1575 12.3778 16.5005 12.1405L28.6667 3.71796" stroke="#717171" stroke-width="2.5" stroke-linecap="round" stroke-linejoin="round"/>
</svg>
